<?xml version="1.0" encoding="utf-8"?>
<!-- Generator: Adobe Illustrator 25.4.2, SVG Export Plug-In . SVG Version: 6.00 Build 0)  -->
<svg version="1.1" id="圖層_1" xmlns="http://www.w3.org/2000/svg" xmlns:xlink="http://www.w3.org/1999/xlink" x="0px" y="0px"
	 viewBox="0 0 247 223.06" style="enable-background:new 0 0 247 223.06;" xml:space="preserve">
<g>
	<g>
		<path d="M123.11,209.2c-50.55,0-91.68-41.13-91.68-91.68c0-50.55,41.13-91.68,91.68-91.68c50.55,0,91.68,41.13,91.68,91.68
			C214.79,168.07,173.67,209.2,123.11,209.2z M123.11,26.83c-50,0-90.68,40.68-90.68,90.68s40.68,90.68,90.68,90.68
			s90.68-40.68,90.68-90.68S173.11,26.83,123.11,26.83z"/>
	</g>
	<g>
		<path d="M152.94,53.66c-0.25-0.34-0.39-0.72-0.41-1.15c-0.03-0.43,0.06-0.86,0.28-1.31c0.21-0.45,0.49-0.8,0.84-1.04
			c0.34-0.25,0.72-0.38,1.14-0.41c0.41-0.03,0.83,0.06,1.24,0.26c0.27,0.13,0.5,0.28,0.69,0.44c0.19,0.17,0.37,0.37,0.54,0.61
			c0.07,0.09,0.08,0.19,0.03,0.31c-0.03,0.06-0.08,0.1-0.15,0.13c-0.07,0.03-0.14,0.02-0.22-0.01c-0.05-0.02-0.08-0.05-0.1-0.08
			c-0.14-0.19-0.29-0.35-0.44-0.48c-0.15-0.13-0.33-0.25-0.55-0.35c-0.35-0.17-0.69-0.24-1-0.21c-0.31,0.03-0.59,0.14-0.84,0.33
			c-0.25,0.19-0.45,0.45-0.61,0.78c-0.16,0.33-0.23,0.65-0.21,0.95c0,0.32,0.1,0.61,0.28,0.87s0.45,0.47,0.79,0.63
			c0.22,0.1,0.42,0.17,0.62,0.21c0.2,0.03,0.41,0.05,0.65,0.04c0.04,0,0.08,0.01,0.12,0.03c0.07,0.04,0.12,0.09,0.15,0.16
			c0.02,0.07,0.02,0.14-0.01,0.2c-0.05,0.11-0.14,0.17-0.26,0.17c-0.29,0.02-0.56,0.01-0.81-0.03c-0.25-0.04-0.51-0.13-0.78-0.26
			C153.51,54.26,153.18,54,152.94,53.66z"/>
		<path d="M158.84,56.8c-0.15-0.27-0.21-0.56-0.19-0.87c0.02-0.31,0.12-0.62,0.3-0.92c0.18-0.31,0.41-0.54,0.68-0.7
			c0.27-0.16,0.55-0.24,0.86-0.23c0.31,0.01,0.61,0.1,0.91,0.28s0.52,0.4,0.67,0.67c0.15,0.27,0.22,0.56,0.2,0.87
			c-0.02,0.31-0.12,0.62-0.3,0.92s-0.41,0.54-0.67,0.7c-0.27,0.17-0.57,0.24-0.87,0.24c-0.31-0.01-0.61-0.1-0.9-0.28
			C159.21,57.29,158.99,57.07,158.84,56.8z M160.35,57.14c0.2,0.01,0.39-0.04,0.58-0.14c0.19-0.11,0.35-0.28,0.49-0.51
			c0.15-0.25,0.22-0.47,0.22-0.68c0-0.2-0.04-0.38-0.14-0.55c-0.1-0.16-0.23-0.3-0.41-0.4c-0.16-0.1-0.34-0.15-0.53-0.17
			c-0.2-0.01-0.39,0.03-0.58,0.14c-0.19,0.11-0.35,0.28-0.49,0.51c-0.15,0.25-0.22,0.48-0.22,0.69c0,0.2,0.04,0.39,0.14,0.55
			c0.1,0.16,0.23,0.3,0.41,0.4C159.97,57.07,160.15,57.12,160.35,57.14z"/>
		<path d="M164.58,60.68c-0.03-0.08-0.03-0.16-0.01-0.24l0.71-3c0.02-0.06,0.04-0.11,0.06-0.14c0.05-0.07,0.12-0.11,0.21-0.13
			c0.09-0.01,0.17,0,0.24,0.05c0.05,0.03,0.08,0.08,0.11,0.14c0.02,0.06,0.03,0.12,0.02,0.18l-0.68,2.6c-0.01,0.03,0,0.06,0.02,0.07
			c0.02,0.01,0.04,0.01,0.07-0.01l2.27-1.44c0.05-0.03,0.11-0.04,0.17-0.04c0.06,0,0.12,0.02,0.17,0.06
			c0.07,0.05,0.11,0.12,0.12,0.21c0.01,0.09-0.01,0.17-0.06,0.24c-0.02,0.03-0.06,0.06-0.11,0.1l-2.64,1.6
			c-0.07,0.04-0.15,0.06-0.24,0.06c-0.08,0-0.16-0.03-0.23-0.08l-0.06-0.04C164.65,60.82,164.61,60.76,164.58,60.68z"/>
		<path d="M168.99,63.65c-0.03-0.45,0.15-0.88,0.53-1.32c0.2-0.23,0.45-0.42,0.72-0.56c0.28-0.14,0.57-0.18,0.87-0.14
			s0.58,0.18,0.84,0.41c0.25,0.22,0.42,0.47,0.51,0.76c0.08,0.27,0.08,0.55,0,0.83c-0.07,0.29-0.21,0.55-0.42,0.79
			c-0.06,0.07-0.13,0.1-0.21,0.11c-0.08,0.01-0.16-0.02-0.24-0.08l-1.74-1.52c-0.18,0.27-0.25,0.54-0.21,0.8
			c0.04,0.26,0.19,0.51,0.45,0.74c0.14,0.12,0.27,0.21,0.4,0.28c0.13,0.07,0.27,0.12,0.43,0.17c0.04,0.01,0.07,0.03,0.11,0.06
			c0.06,0.05,0.09,0.11,0.09,0.19c0.01,0.08-0.01,0.14-0.06,0.2c-0.07,0.08-0.17,0.1-0.31,0.08c-0.21-0.05-0.4-0.11-0.56-0.19
			c-0.16-0.08-0.34-0.2-0.54-0.37C169.24,64.5,169.01,64.09,168.99,63.65z M171.76,63.78c0.11-0.15,0.17-0.3,0.18-0.45
			c0.02-0.18,0-0.34-0.06-0.49c-0.06-0.15-0.16-0.28-0.27-0.39c-0.11-0.1-0.25-0.17-0.41-0.22c-0.17-0.05-0.34-0.04-0.51,0.01
			c-0.17,0.05-0.33,0.15-0.47,0.3l1.44,1.26C171.68,63.83,171.72,63.83,171.76,63.78z"/>
		<path d="M173.26,68.09c0-0.09,0.03-0.16,0.1-0.22l2.11-2.04c0.06-0.06,0.14-0.09,0.23-0.09c0.09,0,0.16,0.03,0.22,0.09
			c0.06,0.06,0.09,0.14,0.09,0.23c0,0.09-0.03,0.17-0.1,0.23l-0.2,0.19c0.52-0.07,0.92,0.04,1.19,0.33l0.02,0.03
			c0.06,0.06,0.09,0.14,0.09,0.22s-0.04,0.16-0.1,0.22c-0.06,0.06-0.13,0.09-0.22,0.08c-0.08-0.01-0.16-0.04-0.22-0.11l-0.02-0.02
			c-0.15-0.16-0.32-0.26-0.52-0.32c-0.2-0.06-0.41-0.07-0.64-0.03l-1.49,1.45c-0.06,0.06-0.14,0.09-0.23,0.09
			c-0.09,0-0.16-0.04-0.22-0.1C173.29,68.25,173.26,68.18,173.26,68.09z"/>
		<path d="M178.2,76.2c0.02-0.09,0.06-0.16,0.13-0.21l3.67-2.62c0.07-0.05,0.15-0.07,0.23-0.05c0.09,0.01,0.15,0.06,0.2,0.13
			c0.05,0.07,0.07,0.15,0.06,0.24c-0.01,0.09-0.05,0.16-0.12,0.21l-0.13,0.1c0.47,0.07,0.83,0.28,1.09,0.65
			c0.17,0.24,0.27,0.5,0.3,0.78c0.03,0.3-0.02,0.59-0.16,0.88s-0.36,0.54-0.65,0.75c-0.3,0.22-0.61,0.34-0.92,0.37
			c-0.31,0.03-0.6-0.01-0.87-0.13c-0.27-0.12-0.49-0.3-0.66-0.54c-0.26-0.36-0.34-0.78-0.26-1.24l-1.41,1
			c-0.07,0.05-0.15,0.07-0.24,0.06c-0.09-0.01-0.16-0.06-0.21-0.13C178.2,76.37,178.19,76.29,178.2,76.2z M181.54,76.81
			c0.29,0.04,0.59-0.06,0.91-0.28c0.31-0.22,0.5-0.48,0.56-0.76c0.06-0.29-0.01-0.57-0.21-0.85c-0.12-0.16-0.27-0.29-0.45-0.39
			c-0.18-0.1-0.38-0.16-0.59-0.19l-1.17,0.83c-0.04,0.21-0.05,0.41-0.01,0.62c0.03,0.2,0.11,0.39,0.22,0.55
			C181,76.62,181.25,76.78,181.54,76.81z"/>
		<path d="M183.23,80.86c0.02-0.08,0.07-0.15,0.15-0.19l3.84-2.21c0.08-0.04,0.16-0.05,0.24-0.03c0.09,0.02,0.15,0.07,0.19,0.15
			c0.04,0.08,0.05,0.16,0.03,0.24c-0.02,0.09-0.07,0.15-0.15,0.2l-1.53,0.88c0.27,0.06,0.5,0.15,0.69,0.27
			c0.19,0.12,0.35,0.29,0.48,0.51c0.12,0.22,0.18,0.44,0.18,0.66c-0.01,0.22-0.08,0.42-0.21,0.61s-0.3,0.34-0.52,0.47l-1.68,0.97
			c-0.08,0.04-0.16,0.05-0.24,0.03c-0.08-0.03-0.15-0.08-0.19-0.15s-0.05-0.15-0.03-0.24s0.07-0.15,0.15-0.19l1.62-0.93
			c0.48-0.28,0.59-0.63,0.34-1.06c-0.11-0.19-0.25-0.33-0.44-0.43s-0.41-0.17-0.68-0.21l-1.78,1.02c-0.08,0.04-0.16,0.05-0.24,0.03
			c-0.09-0.02-0.15-0.07-0.19-0.15C183.22,81.03,183.21,80.95,183.23,80.86z"/>
		<path d="M186.67,87.1c0.03-0.31,0.14-0.58,0.34-0.83c0.19-0.25,0.45-0.45,0.77-0.59c0.32-0.15,0.64-0.21,0.96-0.19
			s0.59,0.12,0.84,0.3c0.25,0.18,0.44,0.43,0.59,0.74s0.2,0.62,0.17,0.93c-0.03,0.31-0.14,0.59-0.33,0.83
			c-0.19,0.25-0.45,0.44-0.77,0.59c-0.32,0.15-0.64,0.21-0.95,0.19c-0.32-0.02-0.6-0.12-0.85-0.3c-0.25-0.18-0.44-0.43-0.58-0.74
			C186.7,87.71,186.64,87.4,186.67,87.1z M187.72,88.23c0.16,0.12,0.34,0.19,0.56,0.21c0.22,0.02,0.45-0.03,0.7-0.14
			c0.26-0.12,0.45-0.26,0.57-0.44c0.12-0.16,0.18-0.34,0.2-0.53c0.01-0.19-0.02-0.38-0.11-0.56c-0.08-0.17-0.19-0.32-0.33-0.44
			c-0.16-0.12-0.34-0.2-0.56-0.21c-0.21-0.02-0.44,0.03-0.69,0.14c-0.27,0.12-0.46,0.27-0.57,0.44c-0.12,0.17-0.19,0.34-0.2,0.53
			c-0.01,0.19,0.02,0.38,0.11,0.56C187.45,87.96,187.57,88.1,187.72,88.23z"/>
		<path d="M189.89,94.22c-0.03,0.06-0.08,0.11-0.14,0.13c-0.1,0.04-0.2,0.01-0.29-0.07c-0.14-0.14-0.24-0.3-0.31-0.49
			c-0.22-0.63-0.05-1.05,0.52-1.25l1.96-0.7l-0.12-0.32c-0.03-0.08-0.03-0.15,0-0.21s0.08-0.11,0.17-0.14
			c0.08-0.03,0.15-0.03,0.21,0c0.06,0.03,0.11,0.08,0.14,0.17l0.11,0.32l0.46-0.16c0.1-0.03,0.18-0.04,0.25,0
			c0.07,0.04,0.12,0.1,0.16,0.2c0.03,0.09,0.03,0.18,0,0.25s-0.1,0.12-0.19,0.16l-0.46,0.16l0.26,0.72
			c0.03,0.07,0.02,0.14-0.01,0.21c-0.03,0.07-0.08,0.11-0.16,0.14c-0.07,0.02-0.14,0.02-0.21-0.01c-0.07-0.03-0.12-0.08-0.14-0.16
			l-0.26-0.72l-1.91,0.68c-0.15,0.05-0.24,0.12-0.27,0.21c-0.03,0.09-0.02,0.2,0.03,0.34c0.03,0.09,0.08,0.17,0.13,0.24
			c0,0.01,0.01,0.01,0.01,0.02c0.02,0.04,0.04,0.07,0.05,0.1C189.92,94.09,189.92,94.15,189.89,94.22z"/>
		<path d="M190.69,97.9c0.08-0.29,0.24-0.55,0.47-0.76c0.23-0.21,0.52-0.36,0.86-0.45c0.34-0.09,0.67-0.1,0.97-0.03
			c0.31,0.07,0.57,0.21,0.78,0.43c0.21,0.22,0.36,0.5,0.45,0.83c0.09,0.33,0.09,0.65,0.02,0.94c-0.08,0.3-0.24,0.56-0.46,0.77
			c-0.23,0.21-0.52,0.36-0.86,0.46c-0.34,0.09-0.67,0.1-0.97,0.03c-0.31-0.07-0.58-0.22-0.79-0.44c-0.21-0.22-0.36-0.49-0.45-0.83
			C190.62,98.51,190.61,98.19,190.69,97.9z M191.53,99.19c0.13,0.15,0.31,0.25,0.51,0.3c0.21,0.05,0.45,0.04,0.71-0.03
			c0.28-0.07,0.49-0.19,0.63-0.34c0.14-0.14,0.24-0.3,0.28-0.49c0.04-0.19,0.04-0.38-0.01-0.57c-0.05-0.18-0.13-0.34-0.26-0.49
			c-0.13-0.15-0.3-0.25-0.51-0.3c-0.21-0.05-0.44-0.05-0.71,0.02c-0.28,0.08-0.5,0.19-0.64,0.34c-0.15,0.14-0.24,0.31-0.29,0.49
			c-0.04,0.18-0.04,0.38,0.01,0.58C191.32,98.88,191.41,99.04,191.53,99.19z"/>
		<path d="M193.11,108.78l-0.16,0.02c-0.09,0.01-0.16-0.02-0.23-0.07c-0.07-0.06-0.11-0.13-0.11-0.21
			c-0.01-0.09,0.01-0.16,0.07-0.23s0.13-0.11,0.21-0.11l4.41-0.44c0.09-0.01,0.16,0.01,0.23,0.07c0.07,0.05,0.11,0.12,0.12,0.21
			c0.01,0.09-0.01,0.17-0.07,0.24c-0.06,0.07-0.13,0.1-0.22,0.11l-1.65,0.17c0.37,0.29,0.58,0.66,0.63,1.11
			c0.03,0.29-0.01,0.57-0.13,0.82c-0.12,0.28-0.31,0.51-0.58,0.69c-0.27,0.18-0.58,0.29-0.94,0.32c-0.37,0.04-0.7-0.01-0.98-0.14
			c-0.29-0.13-0.52-0.31-0.69-0.55c-0.17-0.24-0.27-0.5-0.3-0.79C192.68,109.54,192.81,109.14,193.11,108.78z M193.71,110.62
			c0.24,0.17,0.54,0.24,0.92,0.21c0.38-0.04,0.67-0.17,0.86-0.38c0.2-0.22,0.28-0.5,0.24-0.85c-0.02-0.2-0.08-0.39-0.19-0.56
			s-0.25-0.33-0.42-0.46l-1.43,0.14c-0.14,0.16-0.25,0.34-0.32,0.53c-0.07,0.19-0.1,0.39-0.08,0.59
			C193.34,110.18,193.47,110.44,193.71,110.62z"/>
		<path d="M191.59,115.44c0.06-0.06,0.13-0.09,0.21-0.09c0.04,0,0.07,0.01,0.11,0.02l1.14,0.44l3.12-1.31
			c0.05-0.02,0.09-0.03,0.13-0.03c0.09,0,0.16,0.03,0.23,0.09c0.06,0.06,0.1,0.13,0.1,0.22c0,0.06-0.02,0.12-0.05,0.18
			s-0.08,0.09-0.14,0.12l-2.58,1.07l2.58,1.05c0.14,0.06,0.21,0.16,0.21,0.29c0,0.09-0.03,0.16-0.09,0.22
			c-0.06,0.06-0.14,0.09-0.22,0.09c-0.04,0-0.08-0.01-0.12-0.02l-4.5-1.83c-0.15-0.06-0.22-0.16-0.22-0.29
			C191.5,115.57,191.53,115.5,191.59,115.44z"/>
		<path d="M192.21,126.26c0.27-0.32,0.6-0.55,0.99-0.69s0.8-0.17,1.21-0.1c0.52,0.08,0.97,0.29,1.36,0.63
			c0.4,0.33,0.7,0.75,0.88,1.23s0.24,0.98,0.16,1.48c-0.08,0.46-0.25,0.88-0.51,1.24c-0.27,0.37-0.61,0.63-1,0.8
			c-0.39,0.17-0.81,0.22-1.25,0.15c-0.3-0.05-0.56-0.14-0.78-0.26c-0.25-0.13-0.44-0.31-0.56-0.53c-0.13-0.22-0.17-0.47-0.12-0.75
			c0.04-0.21,0.11-0.38,0.22-0.49c0.11-0.12,0.25-0.18,0.4-0.19c-0.14-0.16-0.24-0.35-0.29-0.55c-0.05-0.2-0.06-0.42-0.02-0.64
			c0.06-0.35,0.22-0.62,0.47-0.79c0.25-0.17,0.56-0.23,0.92-0.17c0.34,0.06,0.62,0.18,0.84,0.38c0.22,0.18,0.38,0.41,0.47,0.68
			c0.09,0.27,0.11,0.54,0.07,0.82c-0.06,0.34-0.22,0.61-0.48,0.8l0.1,0.04c0.06,0.02,0.11,0.06,0.14,0.11
			c0.03,0.06,0.04,0.12,0.03,0.18c-0.01,0.07-0.05,0.13-0.1,0.17c-0.06,0.04-0.12,0.05-0.19,0.04l-0.07-0.02l-1.24-0.44
			c-0.15-0.06-0.3-0.1-0.43-0.12s-0.25-0.01-0.33,0.04c-0.09,0.04-0.14,0.12-0.16,0.22c-0.04,0.27,0.04,0.5,0.25,0.69
			c0.21,0.19,0.53,0.32,0.95,0.39c0.41,0.07,0.78,0.02,1.12-0.14c0.33-0.16,0.6-0.39,0.81-0.7c0.21-0.31,0.35-0.65,0.41-1.03
			c0.07-0.44,0.03-0.87-0.14-1.29c-0.17-0.43-0.43-0.79-0.77-1.08c-0.35-0.29-0.74-0.48-1.18-0.55c-0.32-0.05-0.65-0.02-0.99,0.09
			c-0.34,0.11-0.62,0.31-0.86,0.58c-0.23,0.27-0.38,0.61-0.45,1.02c-0.04,0.26-0.06,0.49-0.04,0.7c0.01,0.21,0.05,0.46,0.12,0.76
			c0,0.04,0,0.06,0,0.08c-0.01,0.05-0.03,0.09-0.07,0.12s-0.08,0.04-0.13,0.03c-0.03,0-0.06-0.02-0.09-0.04
			c-0.03-0.02-0.05-0.05-0.06-0.08c-0.16-0.52-0.19-1.06-0.1-1.62C191.76,126.99,191.94,126.6,192.21,126.26z M194.12,128.96
			l0.61,0.21c0.23-0.16,0.38-0.4,0.43-0.71c0.03-0.2,0.02-0.39-0.04-0.56c-0.06-0.19-0.17-0.35-0.32-0.48
			c-0.15-0.13-0.33-0.21-0.55-0.24c-0.25-0.04-0.45-0.01-0.61,0.11c-0.16,0.11-0.26,0.29-0.3,0.53
			C193.25,128.37,193.51,128.74,194.12,128.96z"/>
		<path d="M190.81,134.54c0.07-0.06,0.16-0.09,0.25-0.09l3-0.14c0.04,0,0.08,0,0.12,0.01c0.08,0.02,0.15,0.08,0.19,0.15
			c0.04,0.08,0.05,0.16,0.03,0.24c-0.02,0.07-0.05,0.12-0.1,0.16s-0.1,0.06-0.16,0.06l-2.56,0.03c-0.04,0-0.06,0.01-0.07,0.03
			c0,0.02,0.01,0.04,0.04,0.06l2.08,1.38c0.07,0.04,0.12,0.1,0.14,0.18c0.03,0.07,0.03,0.15,0.01,0.22
			c-0.02,0.07-0.06,0.14-0.12,0.18c-0.06,0.05-0.13,0.07-0.21,0.07l-2.5,0.04c-0.04,0-0.06,0.01-0.07,0.03
			c-0.01,0.02,0.01,0.04,0.04,0.06l2.14,1.4c0.05,0.04,0.09,0.08,0.11,0.14c0.02,0.06,0.02,0.12,0,0.19
			c-0.02,0.08-0.07,0.15-0.15,0.19c-0.08,0.04-0.16,0.05-0.24,0.03c-0.04-0.01-0.07-0.03-0.11-0.05l-2.46-1.73
			c-0.08-0.05-0.13-0.12-0.16-0.21c-0.03-0.09-0.04-0.18-0.01-0.26c0.03-0.09,0.08-0.16,0.15-0.22c0.07-0.06,0.16-0.09,0.25-0.09
			l2.19-0.06c0.04,0,0.06-0.01,0.07-0.03c0-0.02-0.01-0.04-0.04-0.06l-1.81-1.23c-0.08-0.06-0.13-0.13-0.17-0.21
			s-0.03-0.17-0.01-0.26C190.69,134.67,190.73,134.59,190.81,134.54z"/>
		<path d="M188.88,141.57c0.41-0.17,0.89-0.15,1.42,0.07c0.29,0.12,0.54,0.28,0.76,0.5c0.22,0.22,0.36,0.48,0.42,0.77
			c0.06,0.29,0.02,0.6-0.11,0.93c-0.13,0.31-0.31,0.56-0.55,0.73c-0.23,0.16-0.5,0.25-0.79,0.28c-0.29,0.02-0.59-0.02-0.88-0.14
			c-0.08-0.03-0.14-0.09-0.17-0.17c-0.04-0.08-0.03-0.16,0-0.25l0.87-2.14c-0.32-0.08-0.59-0.06-0.83,0.06
			c-0.23,0.12-0.42,0.35-0.55,0.67c-0.07,0.17-0.11,0.33-0.14,0.47c-0.02,0.15-0.03,0.3-0.01,0.46c0,0.04,0,0.08-0.02,0.12
			c-0.03,0.07-0.08,0.12-0.15,0.15c-0.07,0.03-0.14,0.04-0.21,0.01c-0.1-0.04-0.15-0.13-0.17-0.27c-0.03-0.22-0.03-0.42-0.01-0.59
			c0.02-0.18,0.08-0.39,0.18-0.63C188.16,142.09,188.47,141.74,188.88,141.57z M189.66,144.23c0.18,0.05,0.34,0.06,0.49,0.02
			c0.17-0.04,0.32-0.11,0.44-0.22c0.12-0.11,0.21-0.24,0.27-0.39c0.05-0.14,0.08-0.29,0.08-0.46c-0.01-0.18-0.07-0.34-0.18-0.48
			c-0.11-0.15-0.25-0.26-0.44-0.35l-0.72,1.77C189.59,144.18,189.61,144.21,189.66,144.23z"/>
		<path d="M186.35,146.94c0.08-0.04,0.17-0.04,0.26,0c0.06,0.03,0.11,0.09,0.14,0.16c0.03,0.07,0.02,0.14-0.01,0.21
			c-0.02,0.04-0.05,0.07-0.08,0.1c-0.13,0.11-0.25,0.22-0.34,0.33s-0.18,0.25-0.26,0.4c-0.23,0.45-0.2,0.74,0.08,0.89
			c0.09,0.05,0.18,0.03,0.28-0.04c0.1-0.08,0.24-0.22,0.43-0.43c0.17-0.21,0.33-0.38,0.48-0.5c0.15-0.14,0.32-0.23,0.51-0.27
			c0.18-0.04,0.37-0.01,0.56,0.09c0.29,0.15,0.47,0.37,0.54,0.67c0.07,0.3,0.01,0.64-0.18,1.01c-0.17,0.33-0.37,0.59-0.6,0.81
			c-0.04,0.05-0.1,0.08-0.16,0.09c-0.06,0.01-0.12,0-0.17-0.03c-0.06-0.03-0.11-0.09-0.14-0.16c-0.03-0.08-0.02-0.15,0.01-0.21
			l0.05-0.07c0.2-0.21,0.35-0.42,0.46-0.64c0.11-0.21,0.16-0.4,0.14-0.56c-0.01-0.17-0.08-0.28-0.21-0.34
			c-0.12-0.06-0.23-0.05-0.34,0.03c-0.11,0.09-0.26,0.24-0.44,0.45c-0.17,0.19-0.33,0.35-0.47,0.5c-0.15,0.13-0.32,0.22-0.5,0.25
			c-0.18,0.03-0.38,0-0.57-0.1c-0.26-0.13-0.43-0.35-0.49-0.65s0-0.63,0.19-1C185.72,147.51,186,147.19,186.35,146.94z"/>
		<path d="M183.35,152.08c0.08-0.02,0.16-0.01,0.24,0.04l3.8,2.29c0.07,0.04,0.12,0.11,0.15,0.2c0.02,0.08,0.01,0.17-0.03,0.24
			c-0.05,0.08-0.11,0.13-0.2,0.15c-0.08,0.02-0.17,0.01-0.24-0.04l-3.8-2.29c-0.08-0.05-0.12-0.11-0.14-0.2s-0.01-0.17,0.04-0.24
			C183.2,152.15,183.27,152.1,183.35,152.08z"/>
		<path d="M181.33,155.89c0.44-0.07,0.9,0.06,1.36,0.39c0.25,0.18,0.46,0.4,0.63,0.66c0.16,0.27,0.24,0.55,0.23,0.85
			c-0.01,0.3-0.12,0.59-0.32,0.88c-0.2,0.28-0.43,0.47-0.7,0.58c-0.26,0.1-0.54,0.13-0.83,0.09s-0.57-0.16-0.83-0.34
			c-0.07-0.05-0.11-0.12-0.13-0.2s0-0.17,0.06-0.24l1.34-1.88c-0.29-0.16-0.56-0.2-0.82-0.13c-0.26,0.07-0.49,0.24-0.69,0.52
			c-0.11,0.15-0.19,0.29-0.24,0.43c-0.06,0.14-0.1,0.29-0.12,0.45c0,0.04-0.02,0.07-0.05,0.12c-0.04,0.06-0.1,0.1-0.18,0.11
			c-0.08,0.02-0.15,0-0.21-0.04c-0.09-0.06-0.12-0.16-0.1-0.3c0.03-0.22,0.07-0.41,0.13-0.58c0.06-0.17,0.17-0.36,0.32-0.57
			C180.51,156.22,180.89,155.96,181.33,155.89z M181.48,158.66c0.16,0.09,0.32,0.14,0.47,0.13c0.18,0,0.34-0.04,0.48-0.11
			c0.14-0.08,0.26-0.18,0.36-0.31c0.08-0.12,0.14-0.26,0.18-0.43c0.03-0.17,0.01-0.34-0.06-0.51c-0.07-0.16-0.19-0.31-0.34-0.44
			l-1.11,1.56C181.42,158.59,181.43,158.63,181.48,158.66z"/>
		<path d="M175.85,159.92c0.09,0,0.16,0.02,0.22,0.07c0.03,0.02,0.05,0.05,0.07,0.09l0.58,1.08l3.21,1.06
			c0.05,0.02,0.08,0.04,0.12,0.06c0.07,0.06,0.1,0.13,0.11,0.22c0.01,0.09-0.02,0.17-0.07,0.23c-0.04,0.05-0.09,0.08-0.16,0.1
			c-0.06,0.02-0.13,0.02-0.19-0.01l-2.65-0.89l1.27,2.48c0.07,0.14,0.06,0.26-0.03,0.36c-0.06,0.07-0.13,0.1-0.22,0.11
			c-0.09,0-0.17-0.02-0.23-0.08c-0.03-0.03-0.06-0.06-0.08-0.09l-2.2-4.33c-0.07-0.14-0.06-0.27,0.03-0.37
			C175.7,159.96,175.77,159.93,175.85,159.92z"/>
		<path d="M172.19,163.98c0.09,0,0.16,0.04,0.22,0.1l3.14,3.23c0.06,0.06,0.09,0.14,0.09,0.22c0,0.09-0.03,0.16-0.1,0.22
			c-0.06,0.06-0.14,0.09-0.23,0.09c-0.09,0-0.16-0.03-0.22-0.09l-0.11-0.12c0,0.47-0.16,0.87-0.48,1.18
			c-0.21,0.21-0.45,0.34-0.73,0.41c-0.29,0.08-0.59,0.07-0.9-0.03c-0.31-0.09-0.58-0.27-0.84-0.53c-0.26-0.27-0.43-0.55-0.5-0.85
			c-0.08-0.3-0.08-0.6,0-0.88c0.08-0.28,0.22-0.53,0.43-0.73c0.32-0.31,0.72-0.46,1.19-0.44l-1.21-1.24
			c-0.06-0.07-0.09-0.14-0.09-0.23s0.03-0.16,0.1-0.23C172.03,164.01,172.1,163.98,172.19,163.98z M172.09,167.37
			c0.01,0.29,0.15,0.58,0.41,0.85c0.27,0.28,0.55,0.42,0.84,0.44s0.56-0.09,0.81-0.34c0.14-0.14,0.25-0.31,0.32-0.5
			c0.07-0.19,0.1-0.4,0.1-0.61l-1-1.03c-0.21-0.01-0.42,0.02-0.61,0.08c-0.2,0.06-0.37,0.17-0.51,0.3
			C172.2,166.81,172.08,167.08,172.09,167.37z"/>
		<path d="M168.34,169.66c0.09,0.01,0.16,0.05,0.21,0.11l2.77,3.46c0.05,0.07,0.08,0.15,0.07,0.23c-0.01,0.09-0.05,0.16-0.11,0.21
			c-0.07,0.05-0.15,0.08-0.24,0.07c-0.09-0.01-0.16-0.05-0.21-0.12l-1.1-1.38c-0.02,0.27-0.08,0.51-0.17,0.72
			c-0.09,0.21-0.24,0.39-0.44,0.55c-0.2,0.16-0.41,0.25-0.63,0.28c-0.22,0.02-0.43-0.02-0.63-0.12s-0.39-0.25-0.54-0.44l-1.21-1.51
			c-0.05-0.07-0.08-0.15-0.06-0.23c0.01-0.09,0.05-0.16,0.12-0.21s0.14-0.08,0.23-0.07c0.09,0.01,0.16,0.05,0.21,0.12l1.17,1.46
			c0.34,0.43,0.71,0.49,1.1,0.18c0.17-0.14,0.29-0.3,0.36-0.5c0.07-0.2,0.1-0.43,0.1-0.71l-1.28-1.6c-0.05-0.07-0.08-0.15-0.06-0.23
			c0.01-0.09,0.05-0.16,0.12-0.21C168.18,169.67,168.26,169.65,168.34,169.66z"/>
		<path d="M162.72,174c0.31-0.02,0.6,0.05,0.87,0.21s0.51,0.38,0.7,0.67c0.19,0.3,0.31,0.6,0.34,0.92c0.03,0.31-0.03,0.6-0.17,0.88
			c-0.14,0.27-0.36,0.5-0.65,0.69s-0.59,0.29-0.89,0.31c-0.31,0.02-0.6-0.05-0.87-0.2c-0.27-0.15-0.51-0.38-0.7-0.67
			s-0.31-0.6-0.33-0.91c-0.03-0.32,0.03-0.61,0.17-0.89c0.14-0.27,0.35-0.5,0.64-0.69C162.12,174.12,162.42,174.01,162.72,174z
			 M161.76,175.2c-0.1,0.17-0.14,0.37-0.12,0.58c0.01,0.22,0.1,0.44,0.25,0.67c0.16,0.24,0.33,0.41,0.52,0.5
			c0.18,0.09,0.36,0.13,0.55,0.11c0.19-0.02,0.37-0.08,0.54-0.19c0.16-0.1,0.28-0.24,0.38-0.4c0.1-0.17,0.14-0.37,0.13-0.58
			c-0.01-0.21-0.1-0.44-0.25-0.66c-0.16-0.24-0.33-0.41-0.52-0.5c-0.18-0.09-0.37-0.13-0.56-0.12c-0.19,0.01-0.37,0.08-0.54,0.19
			C161.99,174.9,161.86,175.03,161.76,175.2z"/>
		<path d="M156.16,178.27c-0.07-0.02-0.12-0.06-0.15-0.12c-0.05-0.09-0.04-0.19,0.03-0.29c0.12-0.16,0.26-0.28,0.44-0.38
			c0.59-0.32,1.03-0.21,1.32,0.32l0.99,1.83l0.3-0.16c0.08-0.04,0.15-0.05,0.21-0.03c0.06,0.02,0.12,0.07,0.16,0.14
			c0.04,0.08,0.05,0.15,0.03,0.21c-0.02,0.06-0.07,0.12-0.14,0.16l-0.3,0.16l0.23,0.43c0.05,0.09,0.06,0.17,0.04,0.25
			c-0.02,0.08-0.08,0.14-0.17,0.18c-0.09,0.05-0.17,0.06-0.25,0.04s-0.14-0.08-0.18-0.17l-0.23-0.43l-0.67,0.36
			c-0.07,0.04-0.14,0.04-0.21,0.02s-0.12-0.07-0.16-0.13c-0.04-0.06-0.04-0.13-0.02-0.21c0.02-0.07,0.06-0.13,0.13-0.17l0.67-0.36
			l-0.96-1.78c-0.08-0.14-0.16-0.22-0.25-0.23c-0.09-0.02-0.2,0.01-0.33,0.08c-0.08,0.05-0.16,0.1-0.22,0.17
			c-0.01,0-0.01,0.01-0.01,0.02c-0.04,0.03-0.07,0.05-0.1,0.07C156.29,178.28,156.22,178.29,156.16,178.27z"/>
		<path d="M152.64,179.61c0.3,0.04,0.58,0.15,0.82,0.35c0.24,0.2,0.44,0.46,0.58,0.78c0.14,0.33,0.2,0.65,0.18,0.96
			c-0.02,0.31-0.13,0.59-0.31,0.84c-0.18,0.25-0.44,0.44-0.75,0.58c-0.32,0.14-0.63,0.19-0.93,0.16c-0.31-0.03-0.58-0.15-0.83-0.34
			c-0.24-0.2-0.44-0.45-0.58-0.78c-0.14-0.33-0.2-0.64-0.18-0.95c0.02-0.32,0.13-0.6,0.31-0.84c0.18-0.25,0.43-0.43,0.75-0.57
			C152.03,179.63,152.34,179.58,152.64,179.61z M151.49,180.64c-0.13,0.15-0.2,0.34-0.22,0.55c-0.02,0.22,0.02,0.45,0.13,0.7
			c0.11,0.26,0.26,0.45,0.43,0.57c0.16,0.12,0.34,0.19,0.53,0.2c0.19,0.02,0.38-0.02,0.57-0.1c0.17-0.07,0.32-0.18,0.45-0.33
			c0.13-0.16,0.2-0.34,0.22-0.55c0.02-0.21-0.02-0.44-0.13-0.7c-0.12-0.27-0.26-0.46-0.43-0.58c-0.16-0.12-0.34-0.19-0.53-0.21
			c-0.19-0.02-0.38,0.02-0.56,0.1C151.77,180.38,151.62,180.49,151.49,180.64z"/>
		<path d="M145.78,180.49c0.28-0.02,0.52-0.01,0.72,0.03c0.1,0.03,0.17,0.09,0.2,0.19c0.02,0.07,0.02,0.14-0.02,0.21
			c-0.03,0.07-0.09,0.12-0.16,0.15c-0.04,0.01-0.08,0.01-0.13,0.01c-0.39-0.05-0.78-0.02-1.15,0.1c-0.66,0.21-0.87,0.67-0.65,1.37
			l0.13,0.42c0.2-0.42,0.51-0.7,0.95-0.84c0.26-0.08,0.53-0.1,0.8-0.05c0.3,0.05,0.57,0.18,0.8,0.39c0.24,0.21,0.41,0.49,0.52,0.84
			c0.12,0.36,0.14,0.7,0.07,1.01c-0.07,0.3-0.21,0.55-0.4,0.76c-0.2,0.21-0.43,0.35-0.69,0.44c-0.44,0.14-0.86,0.1-1.26-0.12
			l0.05,0.14c0.03,0.08,0.02,0.16-0.02,0.24c-0.04,0.08-0.1,0.13-0.18,0.16c-0.08,0.03-0.16,0.02-0.24-0.02
			c-0.08-0.04-0.13-0.1-0.16-0.18l-0.94-2.91c-0.18-0.55-0.18-1.01-0.01-1.39c0.17-0.38,0.5-0.65,0.99-0.81
			C145.24,180.56,145.5,180.51,145.78,180.49z M145.26,183.02c-0.13,0.13-0.24,0.3-0.35,0.51l0.44,1.34c0.21,0.1,0.4,0.17,0.58,0.2
			c0.18,0.03,0.37,0.01,0.56-0.05c0.33-0.11,0.57-0.3,0.7-0.56c0.13-0.26,0.14-0.58,0.02-0.94c-0.12-0.37-0.31-0.61-0.57-0.75
			s-0.56-0.15-0.9-0.04C145.54,182.79,145.38,182.89,145.26,183.02z"/>
		<path d="M140.52,183.68c0.07,0.05,0.12,0.11,0.14,0.2l0.67,2.86c0.02,0.08,0.01,0.17-0.04,0.24c-0.05,0.08-0.11,0.12-0.2,0.14
			c-0.08,0.02-0.16,0.01-0.24-0.04c-0.08-0.05-0.12-0.11-0.14-0.2l-0.06-0.27c-0.21,0.48-0.51,0.76-0.9,0.86l-0.03,0.01
			c-0.08,0.02-0.16,0-0.23-0.04c-0.07-0.04-0.12-0.11-0.14-0.2c-0.02-0.08-0.01-0.16,0.04-0.23c0.05-0.07,0.12-0.11,0.2-0.13
			l0.03-0.01c0.21-0.05,0.39-0.14,0.54-0.28c0.15-0.14,0.27-0.32,0.35-0.53l-0.47-2.02c-0.02-0.08-0.01-0.16,0.04-0.24
			c0.05-0.07,0.12-0.12,0.2-0.14C140.37,183.62,140.45,183.63,140.52,183.68z"/>
		<path d="M135.35,184.73c0.19,0.05,0.34,0.15,0.47,0.3c0.12,0.14,0.2,0.32,0.23,0.52c0.05,0.35-0.04,0.64-0.29,0.88
			s-0.61,0.39-1.11,0.46l-0.81,0.12l0.01,0.05c0.04,0.29,0.15,0.49,0.31,0.6s0.4,0.14,0.72,0.1c0.16-0.02,0.31-0.06,0.43-0.1
			c0.13-0.04,0.27-0.11,0.44-0.19l0.09-0.03c0.07-0.01,0.13,0.01,0.19,0.05c0.06,0.04,0.1,0.1,0.11,0.17
			c0.02,0.13-0.03,0.22-0.14,0.29c-0.35,0.22-0.73,0.36-1.13,0.42c-0.31,0.05-0.59,0.02-0.83-0.07c-0.23-0.09-0.41-0.23-0.54-0.41
			c-0.13-0.18-0.22-0.4-0.26-0.64l-0.29-1.91c-0.01-0.09,0.01-0.16,0.06-0.23c0.05-0.07,0.12-0.11,0.21-0.12
			c0.09-0.01,0.16,0.01,0.23,0.06c0.07,0.05,0.11,0.12,0.12,0.21l0.02,0.16c0.27-0.39,0.67-0.62,1.19-0.7
			C134.98,184.67,135.17,184.68,135.35,184.73z M134.1,185.51c-0.17,0.12-0.31,0.26-0.42,0.43l0.08,0.56l0.73-0.11
			c0.68-0.1,0.99-0.33,0.93-0.68c-0.05-0.36-0.32-0.5-0.79-0.43C134.45,185.31,134.27,185.39,134.1,185.51z"/>
		<path d="M129.29,183.91c0.07,0.06,0.1,0.13,0.1,0.22l0.25,4.5c0,0.09-0.02,0.16-0.08,0.23c-0.06,0.06-0.13,0.1-0.22,0.1
			c-0.09,0-0.16-0.02-0.23-0.08c-0.07-0.06-0.1-0.13-0.11-0.22L129,188.5c-0.31,0.36-0.69,0.55-1.13,0.58
			c-0.3,0.02-0.57-0.04-0.82-0.17c-0.27-0.13-0.49-0.33-0.66-0.61c-0.17-0.27-0.26-0.59-0.28-0.95c-0.02-0.37,0.04-0.7,0.18-0.98
			c0.14-0.28,0.33-0.5,0.58-0.67c0.25-0.16,0.51-0.25,0.8-0.27c0.45-0.03,0.84,0.12,1.19,0.45l-0.1-1.73c0-0.09,0.02-0.17,0.08-0.23
			c0.06-0.06,0.13-0.1,0.22-0.11C129.15,183.82,129.23,183.85,129.29,183.91z M126.99,186.4c-0.19,0.23-0.27,0.53-0.25,0.91
			c0.02,0.38,0.14,0.68,0.35,0.88s0.49,0.3,0.83,0.28c0.2-0.01,0.39-0.07,0.57-0.17c0.18-0.1,0.34-0.23,0.47-0.4l-0.08-1.43
			c-0.15-0.15-0.33-0.26-0.52-0.34c-0.19-0.08-0.38-0.12-0.58-0.1C127.44,186.05,127.18,186.17,126.99,186.4z"/>
		<path d="M122.66,185.67c0.06,0.06,0.09,0.14,0.08,0.22l-0.18,4.43c0,0.09-0.04,0.16-0.1,0.22s-0.14,0.09-0.23,0.09
			c-0.09,0-0.16-0.04-0.22-0.11c-0.06-0.07-0.09-0.14-0.09-0.23l0.07-1.76c-0.2,0.19-0.39,0.34-0.6,0.43
			c-0.2,0.1-0.43,0.14-0.69,0.13c-0.25-0.01-0.47-0.08-0.66-0.2c-0.18-0.13-0.31-0.29-0.4-0.5c-0.09-0.21-0.13-0.44-0.12-0.69
			l0.08-1.94c0-0.09,0.04-0.16,0.11-0.22c0.07-0.06,0.14-0.09,0.23-0.08c0.09,0,0.16,0.04,0.22,0.1c0.06,0.06,0.09,0.14,0.08,0.23
			l-0.08,1.87c-0.02,0.55,0.21,0.84,0.71,0.86c0.22,0.01,0.42-0.04,0.6-0.14c0.18-0.1,0.36-0.26,0.54-0.46l0.08-2.05
			c0-0.09,0.04-0.16,0.1-0.22c0.07-0.06,0.14-0.09,0.23-0.08C122.53,185.57,122.6,185.6,122.66,185.67z"/>
		<path d="M115.84,183.59c0.05,0.07,0.07,0.14,0.06,0.22c0,0.04-0.02,0.07-0.04,0.11l-0.59,1.07l0.86,3.27
			c0.01,0.05,0.02,0.09,0.01,0.13c-0.01,0.09-0.05,0.16-0.12,0.21c-0.07,0.05-0.15,0.08-0.23,0.07c-0.06-0.01-0.12-0.04-0.17-0.08
			c-0.05-0.04-0.08-0.09-0.1-0.16l-0.69-2.71l-1.4,2.41c-0.08,0.13-0.19,0.19-0.32,0.17c-0.09-0.01-0.15-0.05-0.21-0.12
			s-0.07-0.15-0.06-0.24c0-0.04,0.02-0.08,0.04-0.11l2.45-4.2c0.08-0.14,0.19-0.19,0.32-0.18
			C115.73,183.48,115.79,183.52,115.84,183.59z"/>
	</g>
</g>
</svg>
