<svg width="300" height="87" viewBox="0 0 300 87" fill="none" xmlns="http://www.w3.org/2000/svg">
<path d="M198.409 13.9533C202.328 13.9533 205.195 10.8951 205.195 6.97667C205.195 2.9627 202.328 0 198.409 0C194.586 0 191.719 3.05827 191.719 6.97667C191.719 10.9906 194.682 13.9533 198.409 13.9533Z" fill="black"/>
<path d="M126.063 37.4656C122.527 23.4167 110.485 15.8666 97.583 19.116C84.7766 22.3655 77.7043 34.6941 81.2405 48.743C84.3943 61.1671 94.2381 68.4305 105.324 67.666L110.007 86.3978H120.424L115.072 64.99C124.438 60.1159 129.121 49.412 126.063 37.4656ZM109.243 65.2767C101.884 67.0925 95.7672 58.969 92.5178 45.9714C89.2684 32.8782 90.7975 22.7477 98.1565 20.9319C105.515 19.116 111.632 27.2396 114.977 40.3327C118.226 53.3304 116.602 63.3653 109.243 65.2767Z" fill="black"/>
<path d="M299.427 51.2221C296.846 58.6766 291.303 62.2128 284.995 62.2128C275.247 62.2128 269.226 53.707 269.226 40.9961H288.436C302.389 40.9961 298.375 30.1966 297.706 28.763C294.839 22.2642 289.201 18.2502 280.408 18.2502C268.557 18.2502 258.522 28.2852 258.522 43.0031C258.522 58.6766 268.557 67.6603 280.599 67.6603C290.634 67.6603 298.089 61.8305 300 51.4133L299.427 51.2221ZM280.313 20.1617C284.04 20.1617 286.238 22.2642 287.576 25.7048C290.347 33.3504 284.518 38.9891 275.343 38.9891H269.417C269.8 27.5206 274.483 20.1617 280.313 20.1617Z" fill="black"/>
<path d="M10.1314 13.9533C14.0498 13.9533 16.9169 10.8951 16.9169 6.97667C16.9169 2.9627 14.0498 0 10.1314 0C6.30858 0 3.44146 3.05827 3.44146 6.97667C3.34589 10.9906 6.30858 13.9533 10.1314 13.9533Z" fill="black"/>
<path d="M18.5407 65.2753C16.247 63.4595 15.7692 61.2613 15.7692 56.1961V22.0773C14.0489 22.7463 12.1375 23.1286 10.1305 23.1286C7.45451 23.1286 4.96967 22.4596 2.67598 21.3127C4.68296 23.2242 5.25639 25.709 5.25639 30.0097V56.2917C5.25639 61.4525 4.8741 63.6506 2.48484 65.3709C0.955706 65.7532 0 66.231 0 66.8045C0 68.0469 4.68296 69.0982 10.5128 69.0982C16.3426 69.0982 21.0255 68.0469 21.0255 66.8045C21.0255 66.231 20.0698 65.7532 18.5407 65.2753Z" fill="black"/>
<path d="M206.915 65.2752C204.621 63.4594 204.143 61.2613 204.143 56.196V22.0773C202.423 22.7463 200.511 23.1286 198.504 23.1286C195.828 23.1286 193.343 22.4596 191.05 21.3127C193.057 23.2242 193.63 25.709 193.63 30.0097V56.2916C193.63 61.4524 193.248 63.6505 190.859 65.3708C189.234 65.7531 188.278 66.3265 188.278 66.8999C188.278 68.1423 192.961 69.1936 198.791 69.1936C204.621 69.1936 209.304 68.1423 209.304 66.8999C209.399 66.2309 208.444 65.7531 206.915 65.2752Z" fill="black"/>
<path d="M74.4446 65.2763C72.1509 63.4605 71.6731 61.2623 71.6731 56.1971V35.1715C71.6731 24.5632 66.2255 18.2555 57.433 18.2555C49.7874 18.2555 43.9576 23.5119 41.5683 32.4V19.2112C39.848 18.5422 37.9366 18.1599 35.9296 18.1599C33.2536 18.1599 30.7688 18.8289 28.5707 19.9758C30.5777 21.8872 31.1511 24.372 31.1511 28.6727V56.1971C31.1511 61.3579 30.7688 63.556 28.3795 65.2763C26.7548 65.6586 25.7991 66.232 25.7991 66.8054C25.7991 68.0479 30.4821 69.0991 36.3119 69.0991C42.1417 69.0991 46.8247 68.0479 46.8247 66.8054C46.8247 66.232 45.869 65.7542 44.2443 65.2763C41.9506 63.4605 41.4727 61.2623 41.4727 56.1971V40.9058C41.4727 30.4885 46.0601 24.1809 52.4634 24.1809C58.6755 24.1809 60.9691 29.4373 60.9691 35.5538V56.1971C60.9691 61.3579 60.5869 63.556 58.1976 65.2763C56.5729 65.6586 55.6172 66.232 55.6172 66.8054C55.6172 68.0479 60.3002 69.0991 66.13 69.0991C71.9598 69.0991 76.6427 68.0479 76.6427 66.8054C77.025 66.232 76.0693 65.7542 74.4446 65.2763Z" fill="black"/>
<path d="M179.289 65.2763C176.995 63.4604 176.517 61.2623 176.517 56.197V54.7635V19.2112C174.797 18.5422 172.885 18.1599 170.878 18.1599C168.202 18.1599 165.718 18.8289 163.519 19.9758C165.526 21.8872 166.1 24.372 166.1 28.6727V45.1108C166.1 55.5281 161.13 61.7401 154.822 61.7401C148.897 61.7401 146.603 56.1015 146.603 50.2717V19.2112C144.883 18.5422 142.972 18.1599 140.965 18.1599C138.289 18.1599 135.804 18.8289 133.606 19.9758C135.613 21.8872 136.186 24.372 136.186 28.6727V50.8451C136.186 61.4534 141.634 67.7611 150.139 67.7611C157.976 67.7611 164.093 62.4091 166.195 53.0432V54.6679V56.1015C166.195 61.2623 165.813 63.4604 163.424 65.1807C161.799 65.563 160.843 66.1364 160.843 66.7098C160.843 67.9522 165.526 69.0035 171.356 69.0035C177.186 69.0035 181.869 67.9522 181.869 66.7098C181.773 66.232 180.818 65.7541 179.289 65.2763Z" fill="black"/>
<path d="M246.576 18.3458C238.548 18.3458 233.961 26.3738 231.954 35.453V19.3015C230.234 18.6325 228.322 18.2502 226.315 18.2502C223.639 18.2502 221.155 18.9192 218.956 20.0661C220.963 21.9775 221.537 24.4623 221.537 28.763V54.8539V56.2874C221.537 61.4482 221.155 63.6464 218.765 65.3666C217.141 65.7489 216.185 66.3223 216.185 66.8958C216.185 68.1382 220.868 69.1895 226.698 69.1895C232.528 69.1895 237.21 68.1382 237.21 66.8958C237.21 66.3223 236.255 65.8445 234.63 65.3666C232.336 63.5508 231.859 61.3527 231.859 56.2874V54.8539V43.7676C231.859 33.2549 236.828 25.1313 242.562 25.1313C245.812 25.1313 250.304 28.3807 250.399 36.2176C252.693 32.108 254.604 27.7118 255.847 23.1244C253.649 20.3528 249.921 18.3458 246.576 18.3458Z" fill="black"/>
</svg>
